<?xml version="1.0" standalone="no"?>
<!DOCTYPE svg PUBLIC "-//W3C//DTD SVG 20010904//EN"
 "http://www.w3.org/TR/2001/REC-SVG-20010904/DTD/svg10.dtd">
<svg version="1.0" xmlns="http://www.w3.org/2000/svg"
 width="410.000000pt" height="410.000000pt" viewBox="0 0 410.000000 410.000000"
 preserveAspectRatio="xMidYMid meet">
<metadata>
Created by potrace 1.11, written by Peter Selinger 2001-2013
</metadata>
<g transform="translate(0.000000,410.000000) scale(0.100000,-0.100000)"
fill="#000000" stroke="none">
<path d="M1415 4090 c-129 -8 -169 -15 -200 -36 -11 -8 -31 -14 -44 -14 -14 0
-34 -9 -46 -20 -18 -17 -27 -19 -49 -10 -15 5 -42 10 -60 10 -18 0 -45 9 -59
20 -14 11 -28 20 -30 20 -3 0 -21 -21 -39 -46 -24 -34 -50 -54 -94 -75 -39
-19 -65 -39 -75 -56 -7 -16 -24 -41 -36 -56 -13 -16 -23 -42 -23 -61 0 -17 -7
-41 -15 -53 -19 -28 -101 -73 -131 -73 -16 0 -32 -12 -49 -38 -13 -21 -39 -46
-56 -56 -17 -10 -38 -34 -46 -54 -8 -19 -26 -44 -39 -55 -14 -10 -36 -41 -49
-68 -14 -26 -34 -53 -45 -59 -24 -13 -27 -62 -6 -100 8 -14 11 -31 7 -40 -5
-8 -8 -44 -9 -80 0 -63 -10 -93 -67 -203 -11 -21 -12 -34 -4 -55 6 -15 8 -43
5 -63 -5 -29 -1 -41 19 -63 13 -14 29 -26 35 -26 6 0 18 -16 26 -35 8 -19 20
-35 27 -35 15 0 58 -70 81 -132 18 -49 56 -88 85 -88 9 0 58 -36 109 -80 105
-91 116 -94 224 -60 77 24 136 25 182 4 32 -16 36 -16 68 4 18 11 51 24 72 28
22 4 54 15 71 26 18 10 58 23 91 29 51 9 63 8 91 -6 18 -10 39 -32 47 -50 25
-51 34 -55 113 -47 62 7 72 6 82 -10 6 -10 18 -18 26 -18 8 0 19 -9 26 -21 14
-27 -7 -179 -32 -230 l-18 -36 31 -49 c17 -27 51 -71 75 -99 80 -88 83 -93 83
-104 0 -7 11 -34 25 -61 31 -62 45 -122 33 -144 -6 -11 -3 -28 13 -55 28 -51
22 -117 -14 -143 -14 -10 -30 -40 -41 -75 -10 -32 -22 -71 -28 -88 -25 -71
-22 -110 17 -191 21 -43 51 -96 67 -118 41 -57 58 -101 58 -153 0 -24 5 -53
11 -64 5 -11 17 -54 25 -97 13 -69 18 -80 54 -112 33 -29 45 -51 70 -123 18
-55 27 -99 24 -116 -4 -20 2 -40 20 -69 41 -65 76 -75 151 -45 25 10 73 17
125 19 133 2 163 13 223 78 29 31 58 56 65 56 6 0 29 23 51 50 22 28 63 69 90
90 41 32 53 50 66 92 8 28 15 64 15 79 0 33 13 44 67 58 49 13 71 32 79 69 3
15 9 39 14 54 6 19 3 44 -12 88 -26 76 -17 103 46 130 26 11 47 27 51 40 7 23
75 59 111 60 28 0 111 85 125 128 8 25 8 49 -1 95 -11 55 -11 67 4 94 18 37
21 79 5 89 -22 13 -49 90 -49 142 0 29 -7 66 -15 82 -14 28 -13 33 21 104 36
74 130 197 189 246 40 33 279 254 283 260 4 9 42 65 66 98 14 18 27 51 31 75
4 23 18 66 32 95 16 33 27 78 30 125 8 108 5 109 -164 57 -76 -23 -152 -46
-170 -52 -28 -10 -35 -8 -63 15 -17 15 -38 27 -45 27 -11 0 -11 6 -2 30 11 28
9 32 -30 67 -71 63 -144 118 -166 123 -15 4 -27 22 -40 60 -17 51 -35 77 -84
123 -13 11 -23 29 -23 39 0 11 -14 54 -30 96 -24 60 -39 82 -65 100 -25 16
-35 30 -35 48 0 31 -14 58 -54 105 -17 20 -43 56 -59 80 -15 24 -38 59 -52 78
-38 52 -31 73 10 29 18 -21 39 -38 44 -38 21 0 31 40 25 96 -9 75 -31 98 -86
91 -22 -3 -51 0 -65 6 -19 8 -41 7 -98 -8 -62 -15 -86 -16 -152 -8 -43 6 -91
15 -108 21 -16 6 -55 16 -85 22 -152 32 -180 24 -180 -46 0 -38 -4 -46 -25
-56 -21 -10 -29 -8 -48 10 -15 14 -36 22 -59 22 -43 0 -91 25 -104 54 -10 24
-74 44 -141 45 -35 1 -45 6 -63 31 -16 22 -27 29 -41 25 -28 -9 -23 11 11 42
32 28 38 51 18 71 -10 10 -10 17 1 33 23 37 -18 51 -114 40 -11 -2 -36 -1 -55
2 -19 3 -89 1 -155 -3z m973 -957 l2 -243 295 0 295 0 0 -85 0 -85 -295 0
-295 0 0 -685 0 -685 -85 0 -85 0 0 685 0 685 -300 0 -300 0 0 85 0 85 300 0
300 0 0 245 0 246 83 -3 82 -3 3 -242z"/>
<path d="M3832 1238 c-7 -7 -12 -16 -12 -21 0 -10 -30 -49 -93 -121 -31 -37
-45 -45 -85 -50 -26 -4 -55 -9 -65 -12 -20 -6 -59 -76 -53 -96 3 -7 7 -35 10
-63 5 -47 3 -55 -39 -120 -47 -73 -56 -115 -30 -149 8 -11 12 -30 8 -46 -6
-33 9 -64 42 -86 19 -12 31 -14 57 -5 18 6 45 13 60 16 16 3 29 14 33 28 4 12
33 78 65 147 61 129 113 264 132 338 6 23 17 42 25 42 15 0 16 21 3 114 -13
87 -30 112 -58 84z"/>
</g>
</svg>
